<svg version="1.1" xmlns="http://www.w3.org/2000/svg" xmlns:xlink="http://www.w3.org/1999/xlink" width="512px" height="512px" viewBox="0,0,256,256"><g fill="#ffffff" fill-rule="nonzero" stroke="none" stroke-width="1" stroke-linecap="butt" stroke-linejoin="miter" stroke-miterlimit="10" stroke-dasharray="" stroke-dashoffset="0" font-family="none" font-weight="none" font-size="none" text-anchor="none" style="mix-blend-mode: normal"><g transform="translate(0,8) scale(0.5,0.5)"><path d="M184,48h144c4.4,0 8,3.6 8,8v40h-160v-40c0,-4.4 3.6,-8 8,-8zM128,56v40h-64c-35.3,0 -64,28.7 -64,64v96h192h128h192v-96c0,-35.3 -28.7,-64 -64,-64h-64v-40c0,-30.9 -25.1,-56 -56,-56h-144c-30.9,0 -56,25.1 -56,56zM512,288h-192v32c0,17.7 -14.3,32 -32,32h-64c-17.7,0 -32,-14.3 -32,-32v-32h-192v128c0,35.3 28.7,64 64,64h384c35.3,0 64,-28.7 64,-64z"></path></g></g></svg>