<svg version="1.1" xmlns="http://www.w3.org/2000/svg" xmlns:xlink="http://www.w3.org/1999/xlink" width="512px" height="512px" viewBox="0,0,256,256"><g fill="#ffffff" fill-rule="nonzero" stroke="none" stroke-width="1" stroke-linecap="butt" stroke-linejoin="miter" stroke-miterlimit="10" stroke-dasharray="" stroke-dashoffset="0" font-family="none" font-weight="none" font-size="none" text-anchor="none" style="mix-blend-mode: normal"><g transform="scale(0.5,0.5)"><path d="M352,256c0,22.2 -1.2,43.6 -3.3,64h-185.3c-2.2,-20.4 -3.3,-41.8 -3.3,-64c0,-22.2 1.2,-43.6 3.3,-64h185.3c2.2,20.4 3.3,41.8 3.3,64zM380.8,192h123.1c5.3,20.5 8.1,41.9 8.1,64c0,22.1 -2.8,43.5 -8.1,64h-123.1c2.1,-20.6 3.2,-42 3.2,-64c0,-22 -1.1,-43.4 -3.2,-64zM493.4,160h-116.7c-10,-63.9 -29.8,-117.4 -55.3,-151.6c78.3,20.7 142,77.5 171.9,151.6zM344.3,160h-176.6c6.1,-36.4 15.5,-68.6 27,-94.7c10.5,-23.6 22.2,-40.7 33.5,-51.5c11.2,-10.6 20.5,-13.8 27.8,-13.8c7.3,0 16.6,3.2 27.8,13.8c11.3,10.8 23,27.9 33.5,51.5c11.6,26 20.9,58.2 27,94.7zM135.3,160h-116.7c30,-74.1 93.6,-130.9 172,-151.6c-25.5,34.2 -45.3,87.7 -55.3,151.6zM8.1,192h123.1c-2.1,20.6 -3.2,42 -3.2,64c0,22 1.1,43.4 3.2,64h-123.1c-5.3,-20.5 -8.1,-41.9 -8.1,-64c0,-22.1 2.8,-43.5 8.1,-64zM194.7,446.6c-11.6,-26 -20.9,-58.2 -27,-94.6h176.6c-6.1,36.4 -15.5,68.6 -27,94.6c-10.5,23.6 -22.2,40.7 -33.5,51.5c-11.2,10.7 -20.5,13.9 -27.8,13.9c-7.3,0 -16.6,-3.2 -27.8,-13.8c-11.3,-10.8 -23,-27.9 -33.5,-51.5zM135.3,352c10,63.9 29.8,117.4 55.3,151.6c-78.4,-20.7 -142,-77.5 -172,-151.6zM493.4,352c-30,74.1 -93.6,130.9 -171.9,151.6c25.5,-34.2 45.2,-87.7 55.3,-151.6h116.7z"></path></g></g></svg>